<svg xmlns="http://www.w3.org/2000/svg" viewBox="0 0 1200 630" width="1200" height="630">
  <defs>
    <linearGradient id="bg" x1="0%" y1="0%" x2="100%" y2="100%">
      <stop offset="0%" stop-color="#0f172a"/>
      <stop offset="50%" stop-color="#1e293b"/>
      <stop offset="100%" stop-color="#334155"/>
    </linearGradient>
    <linearGradient id="accent" x1="0%" y1="0%" x2="100%" y2="100%">
      <stop offset="0%" stop-color="#6366f1"/>
      <stop offset="100%" stop-color="#ec4899"/>
    </linearGradient>
  </defs>
  <rect width="1200" height="630" fill="url(#bg)"/>

  <!-- Decorative circles -->
  <circle cx="100" cy="530" r="120" fill="#6366f1" opacity="0.1"/>
  <circle cx="1100" cy="100" r="150" fill="#ec4899" opacity="0.1"/>

  <!-- Plate icon -->
  <circle cx="600" cy="220" r="80" fill="none" stroke="url(#accent)" stroke-width="5" opacity="0.9"/>
  <circle cx="600" cy="220" r="55" fill="none" stroke="url(#accent)" stroke-width="3" opacity="0.5"/>

  <!-- Steam lines -->
  <path d="M570 120 Q560 100 570 80" stroke="#fff" stroke-width="4" stroke-linecap="round" fill="none" opacity="0.4"/>
  <path d="M600 110 Q590 90 600 70" stroke="#fff" stroke-width="4" stroke-linecap="round" fill="none" opacity="0.4"/>
  <path d="M630 120 Q620 100 630 80" stroke="#fff" stroke-width="4" stroke-linecap="round" fill="none" opacity="0.4"/>

  <!-- Fork -->
  <g transform="translate(480, 140)" stroke="#fff" stroke-width="4" stroke-linecap="round" fill="none" opacity="0.7">
    <line x1="0" y1="0" x2="0" y2="50"/>
    <line x1="-8" y1="0" x2="-8" y2="20"/>
    <line x1="8" y1="0" x2="8" y2="20"/>
  </g>

  <!-- Knife -->
  <g transform="translate(720, 140)" stroke="#fff" stroke-width="4" stroke-linecap="round" fill="none" opacity="0.7">
    <line x1="0" y1="20" x2="0" y2="50"/>
    <path d="M0 0 Q10 8 8 20 Q4 24 0 20" fill="#fff" stroke="none" opacity="0.7"/>
  </g>

  <!-- Title text -->
  <text x="600" y="380" text-anchor="middle" font-family="'Inter', -apple-system, sans-serif" font-weight="900" font-size="64" fill="url(#accent)">오늘 뭐 먹지?</text>

  <!-- Subtitle text -->
  <text x="600" y="440" text-anchor="middle" font-family="'Inter', -apple-system, sans-serif" font-weight="500" font-size="32" fill="#cbd5e1">메뉴 추천 - Menu Recommendation</text>

  <!-- Feature badges -->
  <rect x="280" y="480" width="160" height="44" rx="22" fill="#6366f1" opacity="0.3"/>
  <text x="360" y="508" text-anchor="middle" font-family="'Inter', sans-serif" font-weight="600" font-size="18" fill="#a5b4fc">34+ 메뉴</text>

  <rect x="470" y="480" width="160" height="44" rx="22" fill="#ec4899" opacity="0.3"/>
  <text x="550" y="508" text-anchor="middle" font-family="'Inter', sans-serif" font-weight="600" font-size="18" fill="#f9a8d4">18 언어</text>

  <rect x="660" y="480" width="180" height="44" rx="22" fill="#14b8a6" opacity="0.3"/>
  <text x="750" y="508" text-anchor="middle" font-family="'Inter', sans-serif" font-weight="600" font-size="18" fill="#5eead4">70+ 국가</text>

  <!-- Bottom URL -->
  <text x="600" y="590" text-anchor="middle" font-family="'Inter', monospace" font-weight="400" font-size="20" fill="#64748b">product-builder-lecture-8pr.pages.dev</text>
</svg>
